<svg height="32" viewBox="0 0 128 32" width="128" xmlns="http://www.w3.org/2000/svg"><g fill="white"><path d="m4.139 5.701h15.274v5.313h-9.176v2.283h8.965v5.313h-8.965v7.225h-6.097v-20.133z"/><path d="m74.529 5.701v11.651c0 .966-.312 1.786-.936 2.46s-1.559 1.011-2.807 1.011c-1.268 0-2.214-.337-2.837-1.011s-.936-1.494-.936-2.46v-11.651h-31.59v11.651c0 .966-.312 1.786-.936 2.46s-1.559 1.011-2.807 1.011c-1.268 0-2.214-.337-2.837-1.011s-.936-1.494-.936-2.46v-11.651h-6.188v11.863c0 1.248.201 2.4.604 3.456s1.011 1.967 1.826 2.732 1.851 1.363 3.109 1.796 2.732.649 4.422.649 3.159-.216 4.407-.649 2.279-1.031 3.094-1.796 1.424-1.68 1.826-2.747.604-2.224.604-3.471v-6.52h6.561v14.821h6.097v-14.821h6.556v6.55c0 1.248.201 2.4.604 3.456s1.011 1.967 1.826 2.732 1.851 1.363 3.109 1.796 2.732.649 4.422.649 3.159-.216 4.407-.649 2.279-1.031 3.094-1.796 1.424-1.68 1.826-2.747.604-2.224.604-3.471v-11.833h-6.189z"/><path d="m91.607 19.496h-2.204v6.339h-6.097v-20.133h10.746c1.167 0 2.204.181 3.109.543s1.665.86 2.279 1.494 1.077 1.368 1.389 2.204c.312.835.468 1.726.468 2.671 0 .865-.116 1.635-.347 2.309s-.523 1.258-.875 1.751-.74.906-1.162 1.238-.835.599-1.237.8l3.652 7.124h-6.943l-2.777-6.339zm2.898-5.69c.402-.252.604-.659.604-1.222 0-.543-.201-.941-.604-1.192s-.865-.377-1.389-.377h-3.713v3.17h3.713c.523 0 .986-.126 1.389-.377z"/><path d="m116.481 23.48h-7.244l-.724 2.354h-6.913l7.425-20.134h7.667l7.425 20.134h-6.912zm-5.615-5.312h3.984l-1.992-6.49z"/></g></svg>
